<svg width="148" height="20" viewBox="0 0 148 20" fill="none" xmlns="http://www.w3.org/2000/svg">
<path d="M7.62998 3.40695C8.19049 2.24536 8.99088 1.29825 10.156 0.681307C10.7997 0.339096 11.4851 0.13425 12.212 0.045082C12.6061 -0.00311672 13.0051 -0.0175734 13.3918 0.0258055C14.4492 0.141483 15.4184 0.500562 16.2776 1.1392C17.051 1.71758 17.592 2.47189 18.0472 3.2985C18.0889 3.37321 18.1672 3.52503 18.1672 3.52503L15.5335 5.04812C15.5335 5.04812 15.2422 4.583 15.11 4.342C14.5544 3.3467 13.3306 2.78759 12.1337 3.14426C11.0787 3.45996 10.3763 4.35887 10.2906 5.3831C10.2441 5.93015 10.386 6.43142 10.6651 6.90618C12.0872 9.33298 13.5093 11.7598 14.9314 14.1842C15.044 14.3746 15.044 14.377 14.8212 14.377C13.7614 14.377 12.6991 14.3746 11.6393 14.3794C11.5242 14.3794 11.4655 14.3457 11.4092 14.2493C10.9001 13.372 10.386 12.4948 9.87204 11.62C9.2846 10.6199 8.69716 9.62218 8.10972 8.62446C8.06566 8.54493 8.0216 8.463 7.9751 8.38347C7.21632 7.07246 7.01561 5.68434 7.38276 4.21669C7.44395 3.97328 7.52473 3.7347 7.59571 3.49371L7.59326 3.49611C7.62998 3.47683 7.62753 3.44069 7.62998 3.40695Z" fill="url(#paint0_linear_19_4255)"/>
<path d="M7.62958 3.39241C7.62668 3.43226 7.62668 3.47495 7.58029 3.49487C7.57739 3.45218 7.59478 3.41803 7.62958 3.39241Z" fill="#111111"/>
<path d="M2.09558 15.438C2.37951 16.8912 3.12115 18.06 4.3254 18.9396C5.23593 19.6048 6.48179 19.9373 7.61017 19.9976C8.19026 19.9952 8.55741 19.9928 9.13751 19.9904C9.20604 19.9904 9.27702 19.9855 9.34556 19.9831C9.50955 19.9831 9.6711 19.9831 9.83509 19.9831C10.0456 19.9831 10.2561 19.9831 10.4641 19.9831C10.6624 19.9831 10.8607 19.9831 11.0589 19.9831C11.0907 19.9879 11.125 19.9928 11.1568 19.9976C11.2278 19.9976 11.3012 19.9976 11.3722 19.9976C11.382 19.9976 11.3943 19.9976 11.404 19.9976C11.453 19.9928 11.4995 19.9904 11.5485 19.9855C11.852 19.9855 12.1555 19.9855 12.459 19.9855C12.9118 19.9855 13.3671 19.9855 13.8199 19.9855C14.0279 19.9928 14.2384 19.9952 14.4465 20C14.7133 19.9976 14.9801 19.9904 15.2469 19.9904C16.2749 19.9904 17.3029 19.9928 18.3309 19.9952C18.725 19.9687 19.1166 19.9181 19.5009 19.8193C22.2839 19.1035 24.0071 16.4719 23.6742 13.739C23.5934 13.0714 23.3829 12.4256 23.0427 11.8351C22.585 11.0398 22.1175 10.2518 21.6524 9.46134C21.2828 8.83475 20.9108 8.20817 20.5412 7.584C20.3258 7.17431 20.0859 6.77667 19.8362 6.38626C19.6453 6.0561 19.452 5.72352 19.261 5.39336C19.1827 5.42469 19.1068 5.45843 19.031 5.49699C19.1044 5.45843 19.1827 5.42469 19.261 5.39336C19.1729 5.24395 19.0873 5.09212 18.9991 4.9427C18.8914 4.75955 18.7813 4.57639 18.6736 4.39565C18.5047 4.10886 18.3334 3.81967 18.1645 3.53289C18.1106 3.55217 18.0519 3.56422 18.0029 3.59314C17.2148 4.03898 16.4267 4.48481 15.641 4.93306C15.592 4.96198 15.5406 4.99331 15.5308 5.05597C15.6777 5.34034 15.8392 5.6199 16.0179 5.88499C16.0693 5.83438 16.1231 5.78859 16.1794 5.75003C16.1207 5.791 16.0668 5.83438 16.0179 5.88499C16.0987 6.06332 16.2039 6.22961 16.3092 6.39349C16.4071 6.56459 16.4903 6.74775 16.6176 6.90198C16.7791 7.23937 16.9847 7.55267 17.1781 7.87319C17.2197 7.8756 17.2589 7.86837 17.298 7.85632C17.2613 7.86837 17.2221 7.8756 17.1781 7.87319C17.4106 8.29252 17.6505 8.70944 17.9075 9.11431C18.2795 9.75776 18.6516 10.4036 19.0261 11.0447C19.4446 11.7628 19.8681 12.4762 20.2866 13.1943C20.5534 13.6498 20.6954 14.1463 20.6317 14.6692C20.4947 15.8043 19.7212 16.696 18.5757 16.9297C18.468 16.9514 18.3579 16.9562 18.2477 16.9707C18.1841 17.0117 18.1106 16.9924 18.0421 16.9924C16.7032 16.9948 15.3619 16.9948 14.023 16.9948C13.9545 16.9948 13.8835 16.9996 13.815 17.002C13.6632 16.9803 13.5066 17.0189 13.3573 16.9803C13.3255 16.9803 13.2961 16.9803 13.2643 16.9803C13.0856 17.0093 12.9045 17.0069 12.7258 16.9828C12.6352 16.9852 12.5471 16.99 12.4565 16.9924C12.4345 16.9876 12.4125 16.9852 12.3905 16.9803C12.1114 17.0213 11.8275 16.9828 11.5485 17.0044C11.3845 17.0044 11.2205 17.0044 11.0565 17.002C10.8582 17.002 10.66 17.002 10.4617 17.002C10.2512 17.002 10.0431 17.002 9.83264 16.9996C9.66865 16.9996 9.5071 16.9996 9.34311 16.9996C8.78504 16.9972 8.22453 16.9924 7.66646 16.9876C7.60282 16.9876 7.53918 17.0044 7.47799 16.9707C6.27864 16.8791 5.3265 16.0549 5.116 14.8982C5.01075 14.3198 5.09152 13.751 5.39258 13.2329C6.28598 11.7026 7.18427 10.1771 8.08012 8.64678C8.08501 8.63714 8.0948 8.62991 8.10215 8.62268C8.05809 8.54315 8.01403 8.46121 7.96753 8.38168C7.20875 7.07068 7.00804 5.68255 7.37519 4.2149C7.43638 3.9715 7.51716 3.73291 7.58814 3.49192C7.53184 3.5112 7.52205 3.56904 7.49757 3.61242C5.90904 6.30914 4.32051 9.00827 2.73687 11.7074C2.25223 12.534 2.01725 13.4329 2.00012 14.3848C1.99767 14.7343 2.02949 15.0885 2.09558 15.438Z" fill="url(#paint1_linear_19_4255)"/>
<path d="M39.2353 16.18C38.1313 16.18 37.2133 15.976 36.4813 15.568C35.7613 15.16 35.2153 14.59 34.8433 13.858C34.4713 13.126 34.2673 12.274 34.2313 11.302C34.2193 10.81 34.2133 10.282 34.2133 9.71799C34.2133 9.15399 34.2193 8.61399 34.2313 8.09799C34.2673 7.12599 34.4713 6.27399 34.8433 5.54199C35.2153 4.80999 35.7613 4.23999 36.4813 3.83199C37.2133 3.42399 38.1313 3.21999 39.2353 3.21999C40.0633 3.21999 40.7893 3.33399 41.4133 3.56199C42.0373 3.78999 42.5533 4.09599 42.9613 4.47999C43.3813 4.86399 43.6993 5.29599 43.9153 5.77599C44.1313 6.24399 44.2513 6.72999 44.2753 7.23399C44.2873 7.34199 44.2513 7.43199 44.1673 7.50399C44.0953 7.57599 44.0053 7.61199 43.8973 7.61199H42.9073C42.7993 7.61199 42.7033 7.58199 42.6193 7.52199C42.5473 7.46199 42.4933 7.35399 42.4573 7.19799C42.2533 6.26199 41.8693 5.61999 41.3053 5.27199C40.7533 4.92399 40.0573 4.74999 39.2173 4.74999C38.2573 4.74999 37.4953 5.02599 36.9313 5.57799C36.3673 6.11799 36.0613 6.98799 36.0133 8.18799C35.9773 9.17199 35.9773 10.18 36.0133 11.212C36.0613 12.412 36.3673 13.288 36.9313 13.84C37.4953 14.38 38.2573 14.65 39.2173 14.65C40.0573 14.65 40.7533 14.476 41.3053 14.128C41.8693 13.78 42.2533 13.138 42.4573 12.202C42.4933 12.046 42.5473 11.938 42.6193 11.878C42.7033 11.818 42.7993 11.788 42.9073 11.788H43.8973C44.0053 11.788 44.0953 11.824 44.1673 11.896C44.2513 11.968 44.2873 12.058 44.2753 12.166C44.2513 12.67 44.1313 13.162 43.9153 13.642C43.6993 14.11 43.3813 14.536 42.9613 14.92C42.5533 15.304 42.0373 15.61 41.4133 15.838C40.7893 16.066 40.0633 16.18 39.2353 16.18Z" fill="white"/>
<path d="M47.2275 16C47.1075 16 47.0055 15.964 46.9215 15.892C46.8495 15.808 46.8135 15.706 46.8135 15.586V7.07199C46.8135 6.95199 46.8495 6.84999 46.9215 6.76599C47.0055 6.68199 47.1075 6.63999 47.2275 6.63999H48.0555C48.1755 6.63999 48.2775 6.68199 48.3615 6.76599C48.4455 6.84999 48.4875 6.95199 48.4875 7.07199V7.86399C48.7275 7.45599 49.0575 7.14999 49.4775 6.94599C49.8975 6.74199 50.4015 6.63999 50.9895 6.63999H51.7095C51.8295 6.63999 51.9255 6.68199 51.9975 6.76599C52.0695 6.83799 52.1055 6.93399 52.1055 7.05399V7.79199C52.1055 7.91199 52.0695 8.00799 51.9975 8.07999C51.9255 8.15199 51.8295 8.18799 51.7095 8.18799H50.6295C49.9815 8.18799 49.4715 8.37999 49.0995 8.76399C48.7275 9.13599 48.5415 9.64599 48.5415 10.294V15.586C48.5415 15.706 48.4995 15.808 48.4155 15.892C48.3315 15.964 48.2295 16 48.1095 16H47.2275Z" fill="white"/>
<path d="M55.6494 19.42C55.5534 19.42 55.4694 19.384 55.3974 19.312C55.3254 19.24 55.2894 19.156 55.2894 19.06C55.2894 19.012 55.2954 18.964 55.3074 18.916C55.3194 18.868 55.3434 18.808 55.3794 18.736L56.7654 15.442L53.3274 7.32399C53.2674 7.17999 53.2374 7.07799 53.2374 7.01799C53.2374 6.90999 53.2734 6.81999 53.3454 6.74799C53.4174 6.67599 53.5074 6.63999 53.6154 6.63999H54.4974C54.6174 6.63999 54.7134 6.66999 54.7854 6.72999C54.8574 6.78999 54.9054 6.86199 54.9294 6.94599L57.6654 13.498L60.4734 6.94599C60.5094 6.86199 60.5574 6.78999 60.6174 6.72999C60.6894 6.66999 60.7914 6.63999 60.9234 6.63999H61.7694C61.8774 6.63999 61.9674 6.67599 62.0394 6.74799C62.1114 6.81999 62.1474 6.90399 62.1474 6.99999C62.1474 7.05999 62.1174 7.16799 62.0574 7.32399L56.9454 19.114C56.9094 19.198 56.8554 19.27 56.7834 19.33C56.7234 19.39 56.6274 19.42 56.4954 19.42H55.6494Z" fill="white"/>
<path d="M64.7175 19.42C64.5975 19.42 64.4955 19.378 64.4115 19.294C64.3395 19.222 64.3035 19.126 64.3035 19.006V7.05399C64.3035 6.93399 64.3395 6.83799 64.4115 6.76599C64.4955 6.68199 64.5975 6.63999 64.7175 6.63999H65.5455C65.6655 6.63999 65.7615 6.68199 65.8335 6.76599C65.9175 6.83799 65.9595 6.93399 65.9595 7.05399V7.84599C66.2475 7.44999 66.6315 7.11999 67.1115 6.85599C67.5915 6.59199 68.1915 6.45999 68.9115 6.45999C69.5835 6.45999 70.1535 6.57399 70.6215 6.80199C71.1015 7.02999 71.4915 7.34199 71.7915 7.73799C72.1035 8.13399 72.3375 8.58399 72.4935 9.08799C72.6495 9.59199 72.7335 10.132 72.7455 10.708C72.7575 10.9 72.7635 11.104 72.7635 11.32C72.7635 11.536 72.7575 11.74 72.7455 11.932C72.7335 12.496 72.6495 13.036 72.4935 13.552C72.3375 14.056 72.1035 14.506 71.7915 14.902C71.4915 15.286 71.1015 15.598 70.6215 15.838C70.1535 16.066 69.5835 16.18 68.9115 16.18C68.2155 16.18 67.6275 16.054 67.1475 15.802C66.6795 15.538 66.2955 15.214 65.9955 14.83V19.006C65.9955 19.126 65.9595 19.222 65.8875 19.294C65.8155 19.378 65.7135 19.42 65.5815 19.42H64.7175ZM68.5335 14.722C69.1575 14.722 69.6435 14.59 69.9915 14.326C70.3515 14.05 70.6095 13.696 70.7655 13.264C70.9215 12.82 71.0115 12.346 71.0355 11.842C71.0475 11.494 71.0475 11.146 71.0355 10.798C71.0115 10.294 70.9215 9.82599 70.7655 9.39399C70.6095 8.94999 70.3515 8.59599 69.9915 8.33199C69.6435 8.05599 69.1575 7.91799 68.5335 7.91799C67.9455 7.91799 67.4655 8.05599 67.0935 8.33199C66.7335 8.60799 66.4635 8.96199 66.2835 9.39399C66.1155 9.81399 66.0195 10.246 65.9955 10.69C65.9835 10.882 65.9775 11.11 65.9775 11.374C65.9775 11.638 65.9835 11.872 65.9955 12.076C66.0075 12.496 66.1035 12.91 66.2835 13.318C66.4755 13.726 66.7575 14.062 67.1295 14.326C67.5015 14.59 67.9695 14.722 68.5335 14.722Z" fill="white"/>
<path d="M78.9167 16C78.2447 16 77.6987 15.874 77.2787 15.622C76.8587 15.358 76.5527 14.992 76.3607 14.524C76.1687 14.044 76.0727 13.48 76.0727 12.832V8.07999H74.6687C74.5487 8.07999 74.4467 8.04399 74.3627 7.97199C74.2907 7.88799 74.2547 7.78599 74.2547 7.66599V7.05399C74.2547 6.93399 74.2907 6.83799 74.3627 6.76599C74.4467 6.68199 74.5487 6.63999 74.6687 6.63999H76.0727V3.63399C76.0727 3.51399 76.1087 3.41799 76.1807 3.34599C76.2647 3.26199 76.3667 3.21999 76.4867 3.21999H77.3327C77.4527 3.21999 77.5487 3.26199 77.6207 3.34599C77.7047 3.41799 77.7467 3.51399 77.7467 3.63399V6.63999H79.9787C80.0987 6.63999 80.1947 6.68199 80.2667 6.76599C80.3507 6.83799 80.3927 6.93399 80.3927 7.05399V7.66599C80.3927 7.78599 80.3507 7.88799 80.2667 7.97199C80.1947 8.04399 80.0987 8.07999 79.9787 8.07999H77.7467V12.706C77.7467 13.27 77.8427 13.714 78.0347 14.038C78.2267 14.362 78.5687 14.524 79.0607 14.524H80.1587C80.2787 14.524 80.3747 14.566 80.4467 14.65C80.5307 14.722 80.5727 14.818 80.5727 14.938V15.586C80.5727 15.706 80.5307 15.808 80.4467 15.892C80.3747 15.964 80.2787 16 80.1587 16H78.9167Z" fill="white"/>
<path d="M86.4879 16.18C85.5759 16.18 84.8139 16.006 84.2019 15.658C83.5899 15.31 83.1219 14.83 82.7979 14.218C82.4739 13.594 82.2939 12.886 82.2579 12.094C82.2459 11.89 82.2399 11.632 82.2399 11.32C82.2399 10.996 82.2459 10.738 82.2579 10.546C82.2939 9.74199 82.4739 9.03399 82.7979 8.42199C83.1339 7.80999 83.6079 7.32999 84.2199 6.98199C84.8319 6.63399 85.5879 6.45999 86.4879 6.45999C87.3879 6.45999 88.1439 6.63399 88.7559 6.98199C89.3679 7.32999 89.8359 7.80999 90.1599 8.42199C90.4959 9.03399 90.6819 9.74199 90.7179 10.546C90.7299 10.738 90.7359 10.996 90.7359 11.32C90.7359 11.632 90.7299 11.89 90.7179 12.094C90.6819 12.886 90.5019 13.594 90.1779 14.218C89.8539 14.83 89.3859 15.31 88.7739 15.658C88.1619 16.006 87.3999 16.18 86.4879 16.18ZM86.4879 14.794C87.2319 14.794 87.8259 14.56 88.2699 14.092C88.7139 13.612 88.9539 12.916 88.9899 12.004C89.0019 11.824 89.0079 11.596 89.0079 11.32C89.0079 11.044 89.0019 10.816 88.9899 10.636C88.9539 9.72399 88.7139 9.03399 88.2699 8.56599C87.8259 8.08599 87.2319 7.84599 86.4879 7.84599C85.7439 7.84599 85.1439 8.08599 84.6879 8.56599C84.2439 9.03399 84.0099 9.72399 83.9859 10.636C83.9739 10.816 83.9679 11.044 83.9679 11.32C83.9679 11.596 83.9739 11.824 83.9859 12.004C84.0099 12.916 84.2439 13.612 84.6879 14.092C85.1439 14.56 85.7439 14.794 86.4879 14.794Z" fill="white"/>
<path d="M93.7639 16C93.6439 16 93.5419 15.964 93.4579 15.892C93.3859 15.808 93.3499 15.706 93.3499 15.586V7.07199C93.3499 6.95199 93.3859 6.84999 93.4579 6.76599C93.5419 6.68199 93.6439 6.63999 93.7639 6.63999H94.5919C94.7119 6.63999 94.8139 6.68199 94.8979 6.76599C94.9819 6.84999 95.0239 6.95199 95.0239 7.07199V7.86399C95.2639 7.45599 95.5939 7.14999 96.0139 6.94599C96.4339 6.74199 96.9379 6.63999 97.5259 6.63999H98.2459C98.3659 6.63999 98.4619 6.68199 98.5339 6.76599C98.6059 6.83799 98.6419 6.93399 98.6419 7.05399V7.79199C98.6419 7.91199 98.6059 8.00799 98.5339 8.07999C98.4619 8.15199 98.3659 8.18799 98.2459 8.18799H97.1659C96.5179 8.18799 96.0079 8.37999 95.6359 8.76399C95.2639 9.13599 95.0779 9.64599 95.0779 10.294V15.586C95.0779 15.706 95.0359 15.808 94.9519 15.892C94.8679 15.964 94.7659 16 94.6459 16H93.7639Z" fill="white"/>
<path d="M100.962 16C100.842 16 100.74 15.964 100.656 15.892C100.584 15.808 100.548 15.706 100.548 15.586V7.05399C100.548 6.93399 100.584 6.83799 100.656 6.76599C100.74 6.68199 100.842 6.63999 100.962 6.63999H101.826C101.946 6.63999 102.042 6.68199 102.114 6.76599C102.186 6.83799 102.222 6.93399 102.222 7.05399V15.586C102.222 15.706 102.186 15.808 102.114 15.892C102.042 15.964 101.946 16 101.826 16H100.962ZM100.818 4.89399C100.698 4.89399 100.596 4.85799 100.512 4.78599C100.44 4.70199 100.404 4.59999 100.404 4.47999V3.50799C100.404 3.38799 100.44 3.29199 100.512 3.21999C100.596 3.13599 100.698 3.09399 100.818 3.09399H101.952C102.072 3.09399 102.168 3.13599 102.24 3.21999C102.324 3.29199 102.366 3.38799 102.366 3.50799V4.47999C102.366 4.59999 102.324 4.70199 102.24 4.78599C102.168 4.85799 102.072 4.89399 101.952 4.89399H100.818Z" fill="white"/>
<path d="M107.877 16.18C107.277 16.18 106.731 16.06 106.239 15.82C105.747 15.58 105.351 15.256 105.051 14.848C104.751 14.44 104.601 13.978 104.601 13.462C104.601 12.634 104.937 11.974 105.609 11.482C106.281 10.99 107.157 10.666 108.237 10.51L110.919 10.132V9.60999C110.919 9.03399 110.751 8.58399 110.415 8.25999C110.091 7.93599 109.557 7.77399 108.813 7.77399C108.273 7.77399 107.835 7.88199 107.499 8.09799C107.175 8.31399 106.947 8.58999 106.815 8.92599C106.743 9.10599 106.617 9.19599 106.437 9.19599H105.627C105.495 9.19599 105.393 9.15999 105.321 9.08799C105.261 9.00399 105.231 8.90799 105.231 8.79999C105.231 8.61999 105.297 8.39799 105.429 8.13399C105.573 7.86999 105.789 7.61199 106.077 7.35999C106.365 7.10799 106.731 6.89799 107.175 6.72999C107.631 6.54999 108.183 6.45999 108.831 6.45999C109.551 6.45999 110.157 6.55599 110.649 6.74799C111.141 6.92799 111.525 7.17399 111.801 7.48599C112.089 7.79799 112.293 8.15199 112.413 8.54799C112.545 8.94399 112.611 9.34599 112.611 9.75399V15.586C112.611 15.706 112.569 15.808 112.485 15.892C112.413 15.964 112.317 16 112.197 16H111.369C111.237 16 111.135 15.964 111.063 15.892C110.991 15.808 110.955 15.706 110.955 15.586V14.812C110.799 15.028 110.589 15.244 110.325 15.46C110.061 15.664 109.731 15.838 109.335 15.982C108.939 16.114 108.453 16.18 107.877 16.18ZM108.255 14.83C108.747 14.83 109.197 14.728 109.605 14.524C110.013 14.308 110.331 13.978 110.559 13.534C110.799 13.09 110.919 12.532 110.919 11.86V11.356L108.831 11.662C107.979 11.782 107.337 11.986 106.905 12.274C106.473 12.55 106.257 12.904 106.257 13.336C106.257 13.672 106.353 13.954 106.545 14.182C106.749 14.398 107.001 14.56 107.301 14.668C107.613 14.776 107.931 14.83 108.255 14.83Z" fill="white"/>
<path d="M115.973 16C115.853 16 115.751 15.964 115.667 15.892C115.595 15.808 115.559 15.706 115.559 15.586V7.05399C115.559 6.93399 115.595 6.83799 115.667 6.76599C115.751 6.68199 115.853 6.63999 115.973 6.63999H116.819C116.939 6.63999 117.035 6.68199 117.107 6.76599C117.191 6.83799 117.233 6.93399 117.233 7.05399V7.84599C117.545 7.43799 117.935 7.10799 118.403 6.85599C118.883 6.59199 119.495 6.45999 120.239 6.45999C121.019 6.45999 121.679 6.63399 122.219 6.98199C122.771 7.31799 123.185 7.79199 123.461 8.40399C123.737 9.00399 123.875 9.70599 123.875 10.51V15.586C123.875 15.706 123.839 15.808 123.767 15.892C123.695 15.964 123.599 16 123.479 16H122.579C122.459 16 122.357 15.964 122.273 15.892C122.201 15.808 122.165 15.706 122.165 15.586V10.6C122.165 9.75999 121.961 9.10599 121.553 8.63799C121.145 8.15799 120.545 7.91799 119.753 7.91799C119.009 7.91799 118.409 8.15799 117.953 8.63799C117.509 9.10599 117.287 9.75999 117.287 10.6V15.586C117.287 15.706 117.245 15.808 117.161 15.892C117.089 15.964 116.993 16 116.873 16H115.973Z" fill="white"/>
<path d="M130.615 16.18C129.763 16.18 129.025 16.018 128.401 15.694C127.789 15.358 127.315 14.884 126.979 14.272C126.643 13.648 126.463 12.904 126.439 12.04C126.427 11.86 126.421 11.62 126.421 11.32C126.421 11.02 126.427 10.78 126.439 10.6C126.463 9.73599 126.643 8.99799 126.979 8.38599C127.315 7.76199 127.789 7.28799 128.401 6.96399C129.025 6.62799 129.763 6.45999 130.615 6.45999C131.311 6.45999 131.905 6.55599 132.397 6.74799C132.901 6.93999 133.315 7.18599 133.639 7.48599C133.963 7.78599 134.203 8.10999 134.359 8.45799C134.527 8.80599 134.617 9.13599 134.629 9.44799C134.641 9.56799 134.605 9.66399 134.521 9.73599C134.437 9.80799 134.335 9.84399 134.215 9.84399H133.351C133.231 9.84399 133.141 9.81999 133.081 9.77199C133.021 9.71199 132.961 9.61599 132.901 9.48399C132.685 8.89599 132.391 8.48199 132.019 8.24199C131.647 8.00199 131.185 7.88199 130.633 7.88199C129.913 7.88199 129.325 8.10399 128.869 8.54799C128.425 8.99199 128.185 9.70599 128.149 10.69C128.137 11.122 128.137 11.542 128.149 11.95C128.185 12.946 128.425 13.666 128.869 14.11C129.325 14.542 129.913 14.758 130.633 14.758C131.185 14.758 131.647 14.638 132.019 14.398C132.391 14.158 132.685 13.744 132.901 13.156C132.961 13.024 133.021 12.934 133.081 12.886C133.141 12.826 133.231 12.796 133.351 12.796H134.215C134.335 12.796 134.437 12.832 134.521 12.904C134.605 12.976 134.641 13.072 134.629 13.192C134.617 13.444 134.563 13.702 134.467 13.966C134.371 14.23 134.215 14.5 133.999 14.776C133.795 15.04 133.537 15.28 133.225 15.496C132.913 15.7 132.535 15.868 132.091 16C131.659 16.12 131.167 16.18 130.615 16.18Z" fill="white"/>
<path d="M140.852 16.18C139.616 16.18 138.632 15.802 137.9 15.046C137.168 14.278 136.766 13.234 136.694 11.914C136.682 11.758 136.676 11.56 136.676 11.32C136.676 11.068 136.682 10.864 136.694 10.708C136.742 9.85599 136.94 9.11199 137.288 8.47599C137.636 7.82799 138.11 7.32999 138.71 6.98199C139.322 6.63399 140.036 6.45999 140.852 6.45999C141.764 6.45999 142.526 6.65199 143.138 7.03599C143.762 7.41999 144.236 7.96599 144.56 8.67399C144.884 9.38199 145.046 10.21 145.046 11.158V11.464C145.046 11.596 145.004 11.698 144.92 11.77C144.848 11.842 144.752 11.878 144.632 11.878H138.404C138.404 11.89 138.404 11.914 138.404 11.95C138.404 11.986 138.404 12.016 138.404 12.04C138.428 12.532 138.536 12.994 138.728 13.426C138.92 13.846 139.196 14.188 139.556 14.452C139.916 14.716 140.348 14.848 140.852 14.848C141.284 14.848 141.644 14.782 141.932 14.65C142.22 14.518 142.454 14.374 142.634 14.218C142.814 14.05 142.934 13.924 142.994 13.84C143.102 13.684 143.186 13.594 143.246 13.57C143.306 13.534 143.402 13.516 143.534 13.516H144.398C144.518 13.516 144.614 13.552 144.686 13.624C144.77 13.684 144.806 13.774 144.794 13.894C144.782 14.074 144.686 14.296 144.506 14.56C144.326 14.812 144.068 15.064 143.732 15.316C143.396 15.568 142.988 15.778 142.508 15.946C142.028 16.102 141.476 16.18 140.852 16.18ZM138.404 10.636H143.336V10.582C143.336 10.042 143.234 9.56199 143.03 9.14199C142.838 8.72199 142.556 8.39199 142.184 8.15199C141.812 7.89999 141.368 7.77399 140.852 7.77399C140.336 7.77399 139.892 7.89999 139.52 8.15199C139.16 8.39199 138.884 8.72199 138.692 9.14199C138.5 9.56199 138.404 10.042 138.404 10.582V10.636Z" fill="white"/>
<defs>
<linearGradient id="paint0_linear_19_4255" x1="17.5002" y1="3.92962" x2="10.187" y2="17.7819" gradientUnits="userSpaceOnUse">
<stop stop-color="#0274FB"/>
<stop offset="1" stop-color="#1BC1FC"/>
</linearGradient>
<linearGradient id="paint1_linear_19_4255" x1="17.6262" y1="4.33379" x2="8.94512" y2="12.1273" gradientUnits="userSpaceOnUse">
<stop stop-color="#0074FD"/>
<stop offset="1" stop-color="#8CC8FF"/>
</linearGradient>
</defs>
</svg>
